<?xml version="1.0" encoding="UTF-8"?><svg xmlns="http://www.w3.org/2000/svg" xmlns:xlink="http://www.w3.org/1999/xlink" fill-opacity="1" color-rendering="auto" color-interpolation="auto" text-rendering="auto" stroke="black" stroke-linecap="square" width="848" stroke-miterlimit="10" shape-rendering="auto" stroke-opacity="1" fill="black" stroke-dasharray="none" font-weight="normal" stroke-width="1" height="442" font-family="'Dialog'" font-style="normal" stroke-linejoin="miter" font-size="12px" stroke-dashoffset="0" image-rendering="auto">
  <!--Generated by ySVG 2.5-->
  <defs id="genericDefs"/>
  <g>
    <defs id="defs1">
      <clipPath clipPathUnits="userSpaceOnUse" id="clipPath1">
        <path d="M0 0 L848 0 L848 442 L0 442 L0 0 Z"/>
      </clipPath>
      <clipPath clipPathUnits="userSpaceOnUse" id="clipPath2">
        <path d="M33 24 L881 24 L881 466 L33 466 L33 24 Z"/>
      </clipPath>
    </defs>
    <g fill="white" text-rendering="geometricPrecision" shape-rendering="geometricPrecision" transform="translate(-33,-24)" stroke="white">
      <rect x="33" width="848" height="442" y="24" clip-path="url(#clipPath2)" stroke="none"/>
    </g>
    <g font-size="14px" stroke-linecap="butt" transform="matrix(1,0,0,1,-33,-24)" text-rendering="geometricPrecision" font-family="sans-serif" shape-rendering="geometricPrecision" font-weight="bold" stroke-miterlimit="1.45">
      <text x="366.814" xml:space="preserve" y="72.4995" clip-path="url(#clipPath2)" stroke="none">Raspberry PI</text>
      <ellipse rx="70" fill="none" ry="28" clip-path="url(#clipPath2)" cx="410" cy="67"/>
      <text x="77.3174" xml:space="preserve" y="210.4995" clip-path="url(#clipPath2)" stroke="none">Kamera</text>
      <ellipse rx="55" fill="none" ry="25" clip-path="url(#clipPath2)" cx="103" cy="205"/>
      <text x="268.1724" xml:space="preserve" y="210.4995" clip-path="url(#clipPath2)" stroke="none">Arduino</text>
      <ellipse rx="55" fill="none" ry="25" clip-path="url(#clipPath2)" cx="295" cy="205"/>
      <text x="235.752" xml:space="preserve" y="315.9995" clip-path="url(#clipPath2)" stroke="none">Ultraschallsensor</text>
      <ellipse rx="68.5" fill="none" ry="26.5" clip-path="url(#clipPath2)" cx="294.5" cy="310.5"/>
      <text x="469.3345" xml:space="preserve" y="205.4995" clip-path="url(#clipPath2)" stroke="none">Motorshield</text>
      <ellipse rx="55" fill="none" ry="25" clip-path="url(#clipPath2)" cx="509" cy="200"/>
      <text x="489.5449" xml:space="preserve" y="310.4995" clip-path="url(#clipPath2)" stroke="none">Servo</text>
      <ellipse rx="55" fill="none" ry="25" clip-path="url(#clipPath2)" cx="509" cy="305"/>
      <text x="686.1655" xml:space="preserve" y="202.4995" clip-path="url(#clipPath2)" stroke="none">UBEC</text>
      <ellipse rx="55" fill="none" ry="25" clip-path="url(#clipPath2)" cx="706" cy="197"/>
      <text x="661.876" xml:space="preserve" y="308.4995" clip-path="url(#clipPath2)" stroke="none">Fahrtenregler</text>
      <ellipse rx="55" fill="none" ry="25" clip-path="url(#clipPath2)" cx="707" cy="303"/>
      <text x="563.8345" xml:space="preserve" y="431.4995" clip-path="url(#clipPath2)" stroke="none">DC-Antriebsmotor</text>
      <ellipse rx="71.5" fill="none" ry="25" clip-path="url(#clipPath2)" cx="624.5" cy="426"/>
      <text x="793.8828" xml:space="preserve" y="428.4995" clip-path="url(#clipPath2)" stroke="none">Akku</text>
      <ellipse rx="55" fill="none" ry="25" clip-path="url(#clipPath2)" cx="811" cy="423"/>
    </g>
    <g fill="white" text-rendering="geometricPrecision" shape-rendering="geometricPrecision" transform="matrix(1,0,0,1,-33,-24)" stroke="white">
      <rect x="185" width="73" height="45" y="108" clip-path="url(#clipPath2)" stroke="none"/>
    </g>
    <g stroke-linecap="butt" transform="matrix(1,0,0,1,-33,-24)" text-rendering="geometricPrecision" font-family="sans-serif" shape-rendering="geometricPrecision" font-weight="bold" stroke-miterlimit="1.45">
      <text x="194.1514" xml:space="preserve" y="133.5834" clip-path="url(#clipPath2)" stroke="none">Flexkabel</text>
    </g>
    <g fill="white" text-rendering="geometricPrecision" shape-rendering="geometricPrecision" transform="matrix(1,0,0,1,-33,-24)" stroke="white">
      <rect x="309" width="42" height="28" y="125" clip-path="url(#clipPath2)" stroke="none"/>
    </g>
    <g stroke-linecap="butt" transform="matrix(1,0,0,1,-33,-24)" text-rendering="geometricPrecision" font-family="sans-serif" shape-rendering="geometricPrecision" font-weight="bold" stroke-miterlimit="1.45">
      <text x="317.332" xml:space="preserve" y="142.6994" clip-path="url(#clipPath2)" stroke="none">USB</text>
    </g>
    <g fill="white" text-rendering="geometricPrecision" shape-rendering="geometricPrecision" transform="matrix(1,0,0,1,-33,-24)" stroke="white">
      <rect x="228" width="74" height="37" y="239" clip-path="url(#clipPath2)" stroke="none"/>
    </g>
    <g stroke-linecap="butt" transform="matrix(1,0,0,1,-33,-24)" text-rendering="geometricPrecision" font-family="sans-serif" shape-rendering="geometricPrecision" font-weight="bold" stroke-miterlimit="1.45">
      <text x="243.3262" xml:space="preserve" y="253.5227" clip-path="url(#clipPath2)" stroke="none">Jumper</text>
      <text x="250.3311" xml:space="preserve" y="268.2239" clip-path="url(#clipPath2)" stroke="none"> Wire</text>
    </g>
    <g fill="white" text-rendering="geometricPrecision" shape-rendering="geometricPrecision" transform="matrix(1,0,0,1,-33,-24)" stroke="white">
      <rect x="408" width="73" height="45" y="115" clip-path="url(#clipPath2)" stroke="none"/>
    </g>
    <g stroke-linecap="butt" transform="matrix(1,0,0,1,-33,-24)" text-rendering="geometricPrecision" font-family="sans-serif" shape-rendering="geometricPrecision" font-weight="bold" stroke-miterlimit="1.45">
      <text x="435.1631" xml:space="preserve" y="140.5834" clip-path="url(#clipPath2)" stroke="none">I2C</text>
    </g>
    <g fill="white" text-rendering="geometricPrecision" shape-rendering="geometricPrecision" transform="matrix(1,0,0,1,-33,-24)" stroke="white">
      <rect x="447" width="74" height="37" y="232" clip-path="url(#clipPath2)" stroke="none"/>
    </g>
    <g stroke-linecap="butt" transform="matrix(1,0,0,1,-33,-24)" text-rendering="geometricPrecision" font-family="sans-serif" shape-rendering="geometricPrecision" font-weight="bold" stroke-miterlimit="1.45">
      <text x="462.3262" xml:space="preserve" y="246.5227" clip-path="url(#clipPath2)" stroke="none">Jumper</text>
      <text x="469.3311" xml:space="preserve" y="261.2239" clip-path="url(#clipPath2)" stroke="none"> Wire</text>
    </g>
    <g fill="white" text-rendering="geometricPrecision" shape-rendering="geometricPrecision" transform="matrix(1,0,0,1,-33,-24)" stroke="white">
      <rect x="546" width="74" height="37" y="104" clip-path="url(#clipPath2)" stroke="none"/>
    </g>
    <g stroke-linecap="butt" transform="matrix(1,0,0,1,-33,-24)" text-rendering="geometricPrecision" font-family="sans-serif" shape-rendering="geometricPrecision" font-weight="bold" stroke-miterlimit="1.45">
      <text x="561.3262" xml:space="preserve" y="118.5227" clip-path="url(#clipPath2)" stroke="none">Jumper</text>
      <text x="568.3311" xml:space="preserve" y="133.2239" clip-path="url(#clipPath2)" stroke="none"> Wire</text>
    </g>
    <g fill="white" text-rendering="geometricPrecision" shape-rendering="geometricPrecision" transform="matrix(1,0,0,1,-33,-24)" stroke="white">
      <rect x="694" width="74" height="37" y="230" clip-path="url(#clipPath2)" stroke="none"/>
    </g>
    <g stroke-linecap="butt" transform="matrix(1,0,0,1,-33,-24)" text-rendering="geometricPrecision" font-family="sans-serif" shape-rendering="geometricPrecision" font-weight="bold" stroke-miterlimit="1.45">
      <text x="709.3262" xml:space="preserve" y="244.5227" clip-path="url(#clipPath2)" stroke="none">Jumper</text>
      <text x="716.3311" xml:space="preserve" y="259.2239" clip-path="url(#clipPath2)" stroke="none"> Wire</text>
    </g>
    <g fill="white" text-rendering="geometricPrecision" shape-rendering="geometricPrecision" transform="matrix(1,0,0,1,-33,-24)" stroke="white">
      <rect x="555" width="74" height="37" y="251" clip-path="url(#clipPath2)" stroke="none"/>
    </g>
    <g stroke-linecap="butt" transform="matrix(1,0,0,1,-33,-24)" text-rendering="geometricPrecision" font-family="sans-serif" shape-rendering="geometricPrecision" font-weight="bold" stroke-miterlimit="1.45">
      <text x="570.3262" xml:space="preserve" y="265.5227" clip-path="url(#clipPath2)" stroke="none">Jumper</text>
      <text x="577.3311" xml:space="preserve" y="280.2239" clip-path="url(#clipPath2)" stroke="none"> Wire</text>
    </g>
    <g fill="white" text-rendering="geometricPrecision" shape-rendering="geometricPrecision" transform="matrix(1,0,0,1,-33,-24)" stroke="white">
      <rect x="599" width="74" height="37" y="345" clip-path="url(#clipPath2)" stroke="none"/>
    </g>
    <g stroke-linecap="butt" transform="matrix(1,0,0,1,-33,-24)" text-rendering="geometricPrecision" font-family="sans-serif" shape-rendering="geometricPrecision" font-weight="bold" stroke-miterlimit="1.45">
      <text x="614.3262" xml:space="preserve" y="359.5227" clip-path="url(#clipPath2)" stroke="none">Jumper</text>
      <text x="621.3311" xml:space="preserve" y="374.2239" clip-path="url(#clipPath2)" stroke="none"> Wire</text>
    </g>
    <g fill="white" text-rendering="geometricPrecision" shape-rendering="geometricPrecision" transform="matrix(1,0,0,1,-33,-24)" stroke="white">
      <rect x="747" width="74" height="37" y="343" clip-path="url(#clipPath2)" stroke="none"/>
    </g>
    <g stroke-linecap="butt" transform="matrix(1,0,0,1,-33,-24)" text-rendering="geometricPrecision" font-family="sans-serif" shape-rendering="geometricPrecision" font-weight="bold" stroke-miterlimit="1.45">
      <text x="762.3262" xml:space="preserve" y="357.5227" clip-path="url(#clipPath2)" stroke="none">Jumper</text>
      <text x="769.3311" xml:space="preserve" y="372.2239" clip-path="url(#clipPath2)" stroke="none"> Wire</text>
    </g>
    <g text-rendering="geometricPrecision" stroke-miterlimit="1.45" shape-rendering="geometricPrecision" transform="matrix(1,0,0,1,-33,-24)" stroke-linecap="butt">
      <path fill="none" d="M363.4663 87.9174 L142.1068 187.421" clip-path="url(#clipPath2)"/>
      <path fill="none" d="M387.864 93.5631 L314.4825 181.621" clip-path="url(#clipPath2)"/>
      <path fill="none" d="M294.8815 229.9999 L294.6256 284" clip-path="url(#clipPath2)"/>
      <path fill="none" d="M429.9755 93.8357 L491.3726 176.3188" clip-path="url(#clipPath2)"/>
      <path fill="none" d="M509 225 L509 280" clip-path="url(#clipPath2)"/>
      <path fill="none" d="M666.4467 179.6286 L457.1346 87.701" clip-path="url(#clipPath2)"/>
      <path fill="none" d="M545.1893 218.8257 L670.8107 284.1743" clip-path="url(#clipPath2)"/>
      <path fill="none" d="M706.2358 221.9998 L706.7642 278.0002" clip-path="url(#clipPath2)"/>
      <path fill="none" d="M690.9606 326.9133 L640.8254 401.6604" clip-path="url(#clipPath2)"/>
      <path fill="none" d="M727.1589 326.2602 L790.8411 399.7398" clip-path="url(#clipPath2)"/>
    </g>
  </g>
</svg>
